<svg width="197" height="97" viewBox="0 0 197 97" fill="none" xmlns="http://www.w3.org/2000/svg">
<path d="M9.97473 55.8297L41.9525 23.8019C42.002 23.7523 42.0825 23.7523 42.132 23.8019L53.9635 35.6519C64.4267 46.1315 64.4267 63.1468 53.9635 73.6264L51.9451 75.6479C41.4819 86.1275 24.4932 86.1275 14.03 75.6479L9.98092 71.5925C5.63777 67.2425 5.63777 60.1797 9.98092 55.8297L9.97473 55.8297Z" fill="white"/>
<path fill-rule="evenodd" clip-rule="evenodd" d="M6.37413 57.3239L40.8981 22.7458C41.53 22.1129 42.5546 22.113 43.1865 22.7458L55.0179 34.5958C66.0634 45.6586 66.0634 63.6196 55.0179 74.6825L52.9996 76.704C41.954 87.7668 24.0211 87.7668 12.9756 76.704L8.92656 72.6486C4.78094 68.4964 4.12455 62.1658 6.95741 57.3238L6.37413 57.3239ZM13.5754 54.3355L13.5816 54.3355L11.0354 56.8858C7.27454 60.6525 7.27454 66.7697 11.0354 70.5364L15.0844 74.5919C24.9653 84.4882 41.0099 84.4882 50.8908 74.5919L52.9091 72.5704C62.79 62.674 62.79 46.6043 52.9091 36.7079L42.0423 25.8241L13.5754 54.3355Z" fill="#1D1D1B"/>
<path fill-rule="evenodd" clip-rule="evenodd" d="M11.8303 52.4305C12.4094 51.8005 13.3475 51.8013 13.9257 52.4323L21.9624 61.2033C22.5406 61.8343 22.5399 62.8565 21.9608 63.4865C21.3817 64.1165 20.4436 64.1157 19.8654 63.4847L11.8287 54.7137C11.2505 54.0827 11.2513 53.0605 11.8303 52.4305Z" fill="#1D1D1B"/>
<path fill-rule="evenodd" clip-rule="evenodd" d="M20.8384 43.3702C21.4284 42.8208 22.3843 42.8213 22.9735 43.3714L34.954 54.5559C35.5433 55.106 35.5427 55.9973 34.9527 56.5468C34.3628 57.0962 33.4069 57.0957 32.8176 56.5456L20.8371 45.3611C20.2479 44.811 20.2485 43.9197 20.8384 43.3702Z" fill="#1D1D1B"/>
<path d="M47.2287 8.96413C50.8357 12.7472 50.6977 18.7481 46.9205 22.3608L30.558 38.0107L17.4905 24.3053L33.853 8.65544C37.6302 5.04277 43.6217 5.18104 47.2287 8.96413Z" fill="#148FCF"/>
<path fill-rule="evenodd" clip-rule="evenodd" d="M46.1504 9.99571C43.112 6.80905 38.0644 6.69267 34.8829 9.7356L19.5989 24.354L30.6068 35.8992L45.8908 21.2808C49.0723 18.2379 49.1887 13.1824 46.1504 9.99571ZM32.8233 7.57547C37.1962 3.39306 44.1316 3.55323 48.3073 7.93274C52.4829 12.3123 52.3232 19.2585 47.9504 23.441L30.5095 40.1223L15.3824 24.2568L32.8233 7.57547Z" fill="#1D1D1B"/>
<path d="M15.3961 9.60591C19.1733 5.99324 25.1648 6.13152 28.7718 9.91461L43.8741 25.7541L30.1902 38.8421L15.0879 23.0026C11.4809 19.2195 11.6189 13.2186 15.3961 9.60591Z" fill="#148FCF"/>
<path fill-rule="evenodd" clip-rule="evenodd" d="M16.4259 10.6858C13.2444 13.7288 13.128 18.7843 16.1664 21.971L30.2389 36.7304L41.7659 25.7054L27.6934 10.946C24.655 7.7593 19.6074 7.64292 16.4259 10.6858ZM14.0095 24.0339C9.83378 19.6544 9.99348 12.7081 14.3663 8.52573C18.7392 4.34331 25.6746 4.50348 29.8503 8.883L45.9824 25.8025L30.1416 40.9535L14.0095 24.0339Z" fill="#1D1D1B"/>
<path d="M187.95 49.1534V56.5811H183.804V39.2159H187.815V45.9483H187.959C188.253 45.1456 188.733 44.5182 189.4 44.066C190.073 43.6138 190.895 43.3876 191.868 43.3876C192.783 43.3876 193.58 43.5911 194.259 43.9981C194.937 44.3995 195.463 44.9676 195.836 45.7024C196.214 46.4373 196.401 47.2965 196.395 48.2801V56.5811H192.249V49.0941C192.255 48.3705 192.074 47.8052 191.706 47.3982C191.339 46.9913 190.822 46.7878 190.155 46.7878C189.72 46.7878 189.335 46.8839 189.002 47.076C188.674 47.2626 188.417 47.5311 188.23 47.8816C188.049 48.232 187.956 48.656 187.95 49.1534Z" fill="black"/>
<path d="M181.409 43.5573V46.6098H173.192V43.5573H181.409ZM174.914 40.437H179.06V52.4858C179.06 52.7402 179.1 52.9465 179.179 53.1047C179.263 53.2574 179.385 53.3676 179.543 53.4354C179.702 53.4976 179.891 53.5287 180.111 53.5287C180.27 53.5287 180.436 53.5146 180.612 53.4863C180.793 53.4524 180.928 53.4241 181.019 53.4015L181.646 56.3946C181.448 56.4512 181.168 56.5218 180.807 56.6066C180.451 56.6914 180.024 56.7451 179.526 56.7677C178.554 56.8129 177.72 56.6999 177.025 56.4285C176.335 56.1516 175.807 55.722 175.439 55.1397C175.078 54.5575 174.902 53.8255 174.914 52.9436V40.437Z" fill="black"/>
<path d="M171.418 39.2159V56.5811H167.272V39.2159H171.418Z" fill="black"/>
<path d="M156.953 56.8015C156.122 56.8015 155.384 56.663 154.74 56.386C154.101 56.1034 153.595 55.6794 153.222 55.1141C152.855 54.5432 152.671 53.8281 152.671 52.9689C152.671 52.2454 152.798 51.6349 153.053 51.1374C153.307 50.64 153.657 50.2358 154.104 49.9249C154.55 49.614 155.065 49.3795 155.647 49.2212C156.229 49.0572 156.851 48.947 157.513 48.8905C158.253 48.8227 158.849 48.752 159.302 48.6785C159.754 48.5994 160.082 48.4891 160.285 48.3478C160.494 48.2009 160.599 47.9945 160.599 47.7289V47.6865C160.599 47.2512 160.449 46.9149 160.15 46.6775C159.85 46.44 159.446 46.3213 158.937 46.3213C158.389 46.3213 157.948 46.44 157.614 46.6775C157.281 46.9149 157.069 47.2427 156.978 47.661L153.154 47.5254C153.267 46.734 153.558 46.0274 154.028 45.4056C154.502 44.7781 155.153 44.2864 155.978 43.9302C156.809 43.5685 157.806 43.3876 158.971 43.3876C159.802 43.3876 160.568 43.4865 161.269 43.6843C161.97 43.8765 162.58 44.1592 163.1 44.5322C163.62 44.8997 164.022 45.3519 164.304 45.8889C164.593 46.4259 164.737 47.0392 164.737 47.7289V56.581H160.836V54.7665H160.735C160.503 55.2074 160.206 55.5805 159.844 55.8857C159.488 56.191 159.067 56.4199 158.581 56.5725C158.1 56.7252 157.558 56.8015 156.953 56.8015ZM158.233 54.0882C158.68 54.0882 159.081 53.9977 159.437 53.8168C159.799 53.6359 160.087 53.3872 160.302 53.0707C160.517 52.7485 160.624 52.3754 160.624 51.9514V50.7135C160.506 50.7757 160.361 50.8322 160.192 50.8831C160.028 50.9339 159.847 50.982 159.649 51.0272C159.451 51.0724 159.248 51.112 159.039 51.1459C158.83 51.1798 158.629 51.2109 158.437 51.2392C158.047 51.3014 157.713 51.3975 157.436 51.5275C157.165 51.6575 156.956 51.8271 156.809 52.0362C156.667 52.2397 156.597 52.4828 156.597 52.7654C156.597 53.195 156.749 53.5229 157.055 53.749C157.366 53.9751 157.758 54.0882 158.233 54.0882Z" fill="black"/>
<path d="M144.983 56.8269C143.62 56.8269 142.445 56.5584 141.455 56.0214C140.472 55.4787 139.714 54.7071 139.183 53.7066C138.657 52.7004 138.394 51.5049 138.394 50.12C138.394 48.7746 138.66 47.5988 139.191 46.5927C139.723 45.5808 140.472 44.7951 141.438 44.2355C142.405 43.6702 143.544 43.3876 144.855 43.3876C145.782 43.3876 146.63 43.5317 147.399 43.82C148.168 44.1083 148.832 44.5351 149.392 45.1003C149.951 45.6656 150.387 46.3637 150.697 47.1947C151.008 48.02 151.164 48.9668 151.164 50.0352V51.0696H139.844V48.6616H147.306C147.3 48.2206 147.196 47.8278 146.992 47.483C146.789 47.1382 146.509 46.8696 146.153 46.6775C145.802 46.4796 145.398 46.3807 144.94 46.3807C144.477 46.3807 144.061 46.4853 143.694 46.6944C143.326 46.8979 143.035 47.1777 142.82 47.5338C142.606 47.8843 142.493 48.2828 142.481 48.7294V51.1798C142.481 51.7112 142.586 52.1775 142.795 52.5789C143.004 52.9746 143.301 53.2827 143.685 53.5031C144.07 53.7236 144.528 53.8338 145.059 53.8338C145.426 53.8338 145.76 53.7829 146.059 53.6812C146.359 53.5794 146.616 53.4296 146.831 53.2318C147.046 53.0339 147.207 52.7909 147.314 52.5026L151.121 52.6128C150.963 53.4664 150.616 54.2097 150.079 54.8428C149.547 55.4703 148.849 55.9592 147.984 56.3097C147.119 56.6545 146.119 56.8269 144.983 56.8269Z" fill="black"/>
<path d="M121.033 56.5811V39.2159H125.231V46.1857H132.073V39.2159H136.262V56.5811H132.073V49.6028H125.231V56.5811H121.033Z" fill="black"/>
<path d="M110.984 56.5811V43.5572H115.011V45.9314H115.147C115.384 45.0721 115.771 44.4334 116.308 44.0151C116.845 43.5911 117.47 43.3792 118.182 43.3792C118.375 43.3792 118.572 43.3933 118.776 43.4215C118.979 43.4442 119.169 43.4809 119.344 43.5318V47.1354C119.146 47.0675 118.886 47.0138 118.564 46.9743C118.247 46.9347 117.965 46.9149 117.716 46.9149C117.224 46.9149 116.78 47.0252 116.385 47.2456C115.995 47.4604 115.687 47.7628 115.461 48.1529C115.24 48.5373 115.13 48.9895 115.13 49.5095V56.5811H110.984Z" fill="#148FCF"/>
<path d="M102.28 56.8269C100.912 56.8269 99.7361 56.5471 98.7525 55.9875C97.7746 55.4222 97.02 54.6365 96.4886 53.6303C95.9629 52.6185 95.7001 51.4455 95.7001 50.1115C95.7001 48.7718 95.9629 47.5988 96.4886 46.5927C97.02 45.5808 97.7746 44.7951 98.7525 44.2355C99.7361 43.6702 100.912 43.3876 102.28 43.3876C103.648 43.3876 104.821 43.6702 105.799 44.2355C106.782 44.7951 107.537 45.5808 108.063 46.5927C108.594 47.5988 108.86 48.7718 108.86 50.1115C108.86 51.4455 108.594 52.6185 108.063 53.6303C107.537 54.6365 106.782 55.4222 105.799 55.9875C104.821 56.5471 103.648 56.8269 102.28 56.8269ZM102.305 53.6981C102.803 53.6981 103.224 53.5455 103.569 53.2403C103.913 52.935 104.176 52.5111 104.357 51.9684C104.544 51.4257 104.637 50.7983 104.637 50.086C104.637 49.3625 104.544 48.7294 104.357 48.1867C104.176 47.6441 103.913 47.2201 103.569 46.9149C103.224 46.6096 102.803 46.457 102.305 46.457C101.791 46.457 101.356 46.6096 100.999 46.9149C100.649 47.2201 100.381 47.6441 100.194 48.1867C100.013 48.7294 99.9227 49.3625 99.9227 50.086C99.9227 50.7983 100.013 51.4257 100.194 51.9684C100.381 52.5111 100.649 52.935 100.999 53.2403C101.356 53.5455 101.791 53.6981 102.305 53.6981Z" fill="#148FCF"/>
<path d="M83.1891 56.5811V39.2159H95.0429V42.6245H87.3863V46.1857H94.2883V49.6028H87.3863V56.5811H83.1891Z" fill="#148FCF"/>
</svg>